<svg width="48" height="48" viewBox="0 0 48 48" fill="none" xmlns="http://www.w3.org/2000/svg">
<path d="M30 43H9C6.791 43 5 41.209 5 39V18C5 15.791 6.791 14 9 14H30C32.209 14 34 15.791 34 18V39C34 41.209 32.209 43 30 43ZM28 34V23C28 21.343 26.657 20 25 20H14C12.343 20 11 21.343 11 23V34C11 35.657 12.343 37 14 37H25C26.657 37 28 35.657 28 34Z" fill="#FFE47A"/>
<path opacity="0.07" d="M33.9999 27V35H27.8199C27.9399 34.69 27.9999 34.35 27.9999 34V27H33.9999Z" fill="black"/>
<path opacity="0.07" d="M34 27.5V34.5H27.95C27.99 34.34 28 34.17 28 34V27.5H34Z" fill="black"/>
<path d="M39 5H18C15.79 5 14 6.79 14 9V14H20C20 12.34 21.34 11 23 11H34C35.66 11 37 12.34 37 14V25C37 26.66 35.66 28 34 28H23C21.34 28 20 26.66 20 25V20H14V30C14 32.21 15.79 34 18 34H39C41.21 34 43 32.21 43 30V9C43 6.79 41.21 5 39 5Z" fill="#25A2E5"/>
<path opacity="0.05" d="M20.18 13C20.06 13.31 20 13.65 20 14H13.98V13H20.18Z" fill="black"/>
<path opacity="0.07" d="M20.05 13.5C20.01 13.66 20 13.83 20 14H13.98V13.5H20.05Z" fill="black"/>
<path opacity="0.05" d="M13.98 21H19.999V20H13.98V21Z" fill="black"/>
<path opacity="0.07" d="M13.98 20.5H19.999V20H13.98V20.5Z" fill="black"/>
</svg>
